 <svg version="1.0" xmlns="http://www.w3.org/2000/svg" width="700.000000pt" height="537.000000pt" viewBox="0 0 700.000000 537.000000" preserveAspectRatio="xMidYMid meet">
<metadata>
Created by potrace 1.12, written by Peter Selinger 2001-2015
</metadata>
<g transform="translate(0.000000,537.000000) scale(0.100000,-0.100000)" fill="#000000" stroke="none">
<path d="M2937 4983 c-4 -3 -7 -16 -7 -28 0 -12 -9 -34 -20 -48 -11 -14 -31
-44 -44 -67 -13 -23 -34 -47 -46 -54 -16 -7 -27 -27 -36 -61 -7 -29 -21 -55
-33 -64 -14 -9 -21 -24 -21 -47 0 -19 5 -34 10 -34 6 0 10 8 10 17 0 9 10 27
21 40 12 12 27 44 34 70 9 35 17 49 32 51 19 3 73 93 73 122 0 28 34 1 49 -39
19 -52 48 -71 37 -25 -14 62 -18 112 -8 118 27 17 112 -62 112 -105 0 -8 12
-27 25 -44 l26 -30 -7 35 c-3 19 -13 47 -20 62 -19 36 0 46 22 12 19 -28 116
-104 134 -104 6 0 31 -19 57 -42 45 -41 46 -42 39 -15 -3 15 -2 27 3 27 35 0
151 -84 151 -110 0 -7 8 -10 20 -7 14 4 24 -2 32 -16 6 -12 33 -47 60 -78 26
-30 48 -61 48 -68 0 -7 4 -9 10 -6 16 10 58 -43 56 -70 0 -16 -6 -23 -13 -20
-18 6 -16 -6 7 -35 11 -14 20 -33 20 -42 0 -26 31 -98 41 -98 12 0 11 8 -6 55
-19 54 -19 75 3 75 16 1 16 1 0 14 -19 14 -24 51 -9 61 6 3 15 -4 21 -16 17
-31 24 -15 10 25 -12 36 -23 45 -35 26 -14 -22 -33 -7 -59 45 -17 36 -33 55
-45 55 -19 0 -67 55 -95 108 -13 25 -22 33 -37 29 -13 -4 -28 5 -47 29 -16 19
-45 43 -66 53 -20 11 -44 25 -52 32 -12 9 -20 9 -39 -1 -22 -12 -30 -10 -71
11 -26 13 -78 52 -116 86 -54 48 -75 62 -92 57 -14 -3 -28 2 -40 15 -11 12
-27 21 -36 21 -10 0 -23 7 -30 15 -14 16 -23 19 -33 8z"></path>
<path d="M3050 4730 c0 -5 5 -10 10 -10 6 0 10 5 10 10 0 6 -4 10 -10 10 -5 0
-10 -4 -10 -10z"></path>
<path d="M3261 4550 c17 -34 24 -40 27 -26 2 11 -7 29 -23 45 l-27 26 23 -45z"></path>
<path d="M2686 4563 c-3 -4 -6 -33 -6 -65 0 -32 -7 -75 -15 -95 -8 -19 -15
-60 -15 -91 l0 -55 -35 6 c-19 3 -37 3 -39 -1 -2 -4 2 -36 10 -71 11 -45 12
-67 5 -74 -13 -13 -14 -47 -2 -47 19 0 31 61 21 107 -12 53 -10 59 30 66 28 6
30 10 30 49 0 24 7 65 15 92 8 27 15 71 15 98 0 34 5 50 15 54 21 9 19 29 -4
31 -10 1 -22 -1 -25 -4z"></path>
<path d="M3466 4551 c-3 -5 2 -19 13 -32 10 -13 20 -33 24 -44 3 -11 15 -46
26 -77 12 -32 21 -73 21 -91 0 -19 8 -49 18 -68 14 -29 17 -60 16 -209 -1
-113 -6 -186 -14 -205 -6 -16 -20 -64 -31 -105 -11 -41 -25 -88 -33 -105 -18
-39 -29 -105 -19 -105 5 0 17 25 28 56 10 30 27 60 36 65 13 7 18 21 17 57 0
26 7 67 17 92 40 106 43 363 5 472 -11 32 -20 69 -20 83 0 31 -46 154 -65 175
-8 9 -15 22 -15 28 0 15 -17 25 -24 13z"></path>
<path d="M3083 4439 c5 -39 13 -57 20 -48 8 9 -6 89 -15 89 -7 0 -8 -16 -5
-41z"></path>
<path d="M3680 4423 c0 -14 19 -38 25 -32 8 8 -5 39 -16 39 -5 0 -9 -3 -9 -7z"></path>
<path d="M3309 4405 c-12 -19 -21 -155 -10 -155 5 0 13 19 16 43 7 48 3 127
-6 112z"></path>
<path d="M3120 4301 c0 -12 5 -21 10 -21 6 0 10 6 10 14 0 8 -4 18 -10 21 -5
3 -10 -3 -10 -14z"></path>
<path d="M3833 4309 c-17 -17 27 -121 69 -160 22 -21 40 -50 45 -74 6 -22 16
-62 23 -90 23 -86 5 -523 -27 -642 -18 -70 -34 -79 -58 -33 -9 17 -22 30 -30
30 -22 0 -18 -14 12 -50 l26 -32 -22 -70 c-24 -73 -24 -82 1 -73 10 4 18 26
22 58 7 52 28 95 52 110 7 4 16 27 19 52 6 39 26 70 44 70 3 0 4 13 2 28 -1
16 4 36 12 45 8 9 18 35 21 57 4 22 10 49 13 59 4 15 2 18 -12 12 -16 -6 -17
0 -11 62 3 38 8 76 12 86 4 11 0 22 -12 30 -12 10 -19 31 -22 75 -5 66 10 83
29 34 6 -16 19 -46 29 -69 10 -23 22 -63 26 -90 3 -27 11 -59 15 -72 5 -13 14
-78 20 -145 6 -71 21 -153 35 -197 21 -67 22 -81 12 -145 -6 -38 -19 -106 -30
-150 -11 -44 -25 -105 -32 -135 -7 -30 -18 -65 -24 -77 -15 -27 -15 -33 -2
-33 6 0 13 8 17 18 3 9 11 23 16 30 5 7 11 31 14 54 2 23 8 47 13 52 6 6 10
19 10 31 0 11 11 40 24 65 13 25 26 72 30 105 12 99 13 101 20 113 3 6 -2 16
-13 21 -27 15 -51 94 -56 182 -2 41 -6 99 -8 129 -2 30 1 61 6 67 5 7 6 20 3
29 -4 9 -1 23 6 31 9 11 8 21 -6 44 -9 16 -15 38 -11 48 7 24 -11 37 -31 20
-24 -19 -43 5 -25 33 11 17 11 22 -1 29 -7 5 -15 9 -18 9 -4 0 -12 17 -19 37
-10 27 -11 38 -2 41 17 6 14 62 -4 62 -9 0 -18 -7 -21 -15 -9 -22 -34 -18 -34
5 0 11 7 20 15 20 14 0 14 4 0 38 -9 20 -23 42 -31 49 -10 7 -13 19 -9 32 9
29 -3 45 -21 30 -8 -6 -17 -9 -21 -6 -3 4 -12 2 -20 -5 -19 -16 -30 -1 -15 22
8 14 9 27 1 47 -8 21 -12 24 -19 13 -5 -8 -13 -11 -17 -6 -4 4 0 14 11 21 11
8 16 21 13 30 -7 17 -38 20 -54 4z m167 -245 c0 -8 -4 -12 -10 -9 -5 3 -10 13
-10 21 0 8 5 12 10 9 6 -3 10 -13 10 -21z m15 -104 c3 -5 1 -10 -4 -10 -6 0
-11 5 -11 10 0 6 2 10 4 10 3 0 8 -4 11 -10z"></path>
<path d="M3280 4199 c0 -5 5 -7 10 -4 6 3 10 8 10 11 0 2 -4 4 -10 4 -5 0 -10
-5 -10 -11z"></path>
<path d="M3804 4137 c3 -13 8 -62 11 -108 8 -121 -14 -247 -58 -343 -21 -43
-37 -83 -37 -89 0 -5 -15 -30 -34 -56 -42 -59 -59 -91 -47 -91 12 0 101 124
110 153 4 12 22 52 40 89 49 101 65 227 47 376 -7 57 -16 87 -25 90 -10 3 -12
-2 -7 -21z"></path>
<path d="M3240 4036 c0 -14 5 -26 10 -26 6 0 10 9 10 19 0 11 -4 23 -10 26 -6
4 -10 -5 -10 -19z"></path>
<path d="M2585 4039 c-4 -6 -13 -8 -21 -5 -21 8 -22 -2 -14 -92 10 -115 30
-131 23 -19 -5 79 -4 86 16 98 22 14 28 29 12 29 -6 0 -13 -5 -16 -11z"></path>
<path d="M3274 3964 c3 -9 9 -27 12 -40 5 -21 24 -35 24 -17 0 18 -25 73 -33
73 -5 0 -6 -7 -3 -16z"></path>
<path d="M3150 3911 c0 -15 97 -117 105 -109 3 3 -14 27 -39 52 -25 25 -46 50
-46 56 0 5 -4 10 -10 10 -5 0 -10 -4 -10 -9z"></path>
<path d="M3314 3844 c4 -9 11 -37 18 -63 6 -25 22 -69 35 -98 12 -28 23 -58
23 -67 0 -8 5 -18 11 -22 6 -3 18 -22 26 -42 19 -45 41 -30 25 18 -6 17 -9 37
-6 45 4 8 -1 18 -10 21 -15 6 -66 87 -66 105 0 21 -43 119 -52 119 -5 0 -7 -7
-4 -16z"></path>
<path d="M2550 3823 c-8 -2 -21 -6 -28 -9 -10 -3 -9 -10 6 -31 18 -27 35 -80
47 -153 3 -19 8 -50 12 -67 3 -18 10 -33 15 -33 7 0 8 15 4 38 -18 109 -26
146 -40 174 -21 41 -20 46 7 69 22 18 12 24 -23 12z"></path>
<path d="M2870 3821 c0 -5 5 -13 10 -16 6 -3 10 -2 10 4 0 5 -4 13 -10 16 -5
3 -10 2 -10 -4z"></path>
<path d="M3585 3700 c-3 -5 1 -10 10 -10 9 0 13 5 10 10 -3 6 -8 10 -10 10 -2
0 -7 -4 -10 -10z"></path>
<path d="M3006 3682 c-3 -6 -1 -14 5 -17 15 -10 25 3 12 16 -7 7 -13 7 -17 1z"></path>
<path d="M4040 3646 c0 -9 5 -16 10 -16 6 0 10 4 10 9 0 6 -4 13 -10 16 -5 3
-10 -1 -10 -9z"></path>
<path d="M3057 3643 c-3 -5 16 -26 42 -46 56 -43 78 -50 29 -9 -18 15 -40 36
-49 46 -9 11 -18 15 -22 9z"></path>
<path d="M4225 3620 c-4 -6 -11 -8 -16 -5 -12 8 -12 -38 0 -50 19 -21 35 -95
40 -189 4 -68 10 -101 19 -104 9 -3 12 6 9 34 -3 26 1 46 13 63 24 34 35 71
21 71 -6 0 -11 -5 -11 -11 0 -8 -5 -8 -15 1 -8 7 -15 21 -15 31 0 11 7 19 15
19 21 0 19 17 -5 42 -14 15 -20 36 -20 65 0 31 -4 43 -14 43 -8 0 -18 -5 -21
-10z"></path>
<path d="M2760 3597 c0 -15 52 -88 109 -152 54 -62 216 -195 237 -195 2 0 0 9
-6 20 -6 11 -17 20 -25 20 -18 0 -135 108 -135 126 0 7 -6 11 -13 8 -16 -6
-95 76 -137 142 -16 27 -30 40 -30 31z"></path>
<path d="M3220 3521 c0 -19 168 -121 199 -121 29 0 -9 26 -161 110 -21 11 -38
16 -38 11z"></path>
<path d="M2595 3499 c-4 -6 -13 -8 -21 -5 -24 9 -24 -11 0 -55 14 -24 29 -63
36 -86 6 -24 15 -43 20 -43 6 0 10 3 10 8 0 14 -29 101 -40 122 -9 17 -8 25 4
39 9 10 16 21 16 24 0 11 -18 8 -25 -4z"></path>
<path d="M3474 3485 c-7 -17 42 -161 57 -171 13 -8 11 22 -5 60 -7 18 -17 52
-21 74 -7 46 -22 62 -31 37z"></path>
<path d="M4327 3361 c-9 -16 -17 -38 -17 -48 0 -10 -4 -23 -9 -28 -6 -6 -2
-31 10 -65 12 -30 24 -82 29 -115 4 -33 13 -72 19 -87 20 -53 15 -343 -8 -401
-6 -15 -14 -40 -17 -55 -4 -15 -11 -33 -17 -40 -22 -27 1 -20 36 12 32 29 36
38 31 65 -5 23 -2 37 11 52 14 15 16 22 7 31 -19 19 -14 56 8 68 17 9 20 21
20 78 0 45 -5 75 -16 90 -8 12 -14 33 -12 46 1 13 -3 31 -11 40 -8 9 -11 19
-8 23 4 3 2 14 -4 25 -6 11 -8 27 -5 35 6 14 8 14 24 -1 27 -24 31 -20 27 30
-2 41 -15 77 -15 43 0 -19 -38 44 -40 67 -4 32 -1 37 15 24 12 -10 15 -9 15 5
0 9 -8 19 -19 22 -13 3 -17 11 -14 24 3 10 1 19 -5 19 -7 0 -8 11 -1 32 11 41
11 38 -4 38 -7 0 -20 -13 -30 -29z m93 -235 c0 -9 -7 -12 -21 -9 -16 4 -17 8
-7 14 19 13 28 11 28 -5z"></path>
<path d="M2184 3369 c-4 -7 -21 -9 -44 -5 -26 4 -41 2 -49 -8 -6 -7 -15 -67
-21 -134 -5 -66 -17 -140 -26 -164 -21 -59 -36 -132 -39 -196 -1 -35 -7 -56
-18 -65 -15 -11 -15 -16 -1 -56 8 -24 24 -62 34 -84 11 -23 20 -52 20 -66 0
-13 10 -44 21 -69 16 -32 19 -46 10 -55 -20 -20 -12 -42 29 -82 23 -23 40 -49
40 -61 0 -15 17 -38 50 -65 42 -35 50 -48 50 -76 0 -44 -30 -73 -76 -73 -52 0
-114 -20 -125 -42 -7 -13 -6 -18 4 -18 8 0 17 3 20 7 4 3 22 8 39 9 97 10 120
16 125 35 3 10 9 19 14 19 22 0 129 -84 129 -102 0 -15 -50 -20 -112 -11 -35
6 -81 9 -103 8 -22 -1 -77 -2 -122 -3 -135 -3 -99 -22 40 -22 110 0 213 -11
257 -27 8 -4 29 -7 47 -8 18 -1 40 -8 49 -16 9 -8 33 -19 53 -24 23 -7 41 -20
49 -38 9 -19 21 -27 38 -27 14 0 48 -12 76 -26 l52 -26 19 23 c10 12 16 31 14
40 -4 15 0 17 24 12 18 -3 29 -1 29 6 0 6 -8 11 -17 11 -18 0 -86 29 -143 62
-19 10 -56 29 -82 41 -29 14 -46 27 -43 35 3 7 0 10 -6 7 -10 -7 -44 12 -71
39 -9 8 -47 31 -84 50 -62 33 -69 39 -70 67 -1 24 -13 43 -44 73 -35 33 -40
42 -26 44 17 4 17 5 0 23 -9 10 -22 19 -28 19 -19 0 -39 41 -27 53 17 17 13
30 -9 24 -28 -7 -44 16 -30 43 11 20 13 20 29 6 10 -9 22 -16 28 -16 5 0 20
-11 33 -24 39 -42 140 -82 140 -56 0 6 -9 10 -19 10 -11 0 -23 5 -26 10 -4 6
-22 17 -41 25 -19 8 -39 26 -46 40 -8 18 -17 24 -30 19 -10 -3 -18 -1 -18 4 0
5 -18 32 -40 60 -22 27 -40 56 -40 64 0 8 -4 18 -8 24 -19 21 -45 121 -36 137
9 15 12 15 31 2 12 -9 25 -30 29 -48 4 -22 25 -49 69 -87 62 -55 85 -66 93
-42 2 6 -4 12 -13 12 -9 0 -21 13 -26 29 -6 16 -24 36 -42 46 -31 17 -94 92
-104 124 -3 9 -10 26 -15 38 -12 25 2 112 33 208 12 34 23 102 26 157 3 54 11
102 17 107 6 4 29 11 51 14 38 6 45 3 103 -45 34 -29 62 -59 62 -68 0 -9 4
-20 8 -25 5 -6 15 -26 22 -45 7 -19 18 -42 25 -50 6 -8 19 -40 30 -70 10 -30
24 -64 32 -75 15 -22 17 -55 4 -55 -5 0 -20 12 -33 28 -28 32 -104 76 -118 67
-17 -11 -11 -30 25 -81 19 -27 35 -53 35 -58 0 -33 152 -206 181 -206 5 0 9
-6 9 -13 0 -22 134 -153 181 -175 45 -22 112 -82 92 -82 -6 0 -13 4 -15 8 -6
15 -66 52 -85 52 -10 0 -24 5 -29 10 -6 6 -35 13 -65 16 -63 7 -114 27 -129
52 -9 14 -10 12 -8 -13 3 -28 7 -31 82 -51 43 -12 86 -20 94 -17 11 5 13 1 7
-15 -6 -22 8 -31 20 -12 15 25 59 9 104 -38 25 -26 62 -56 81 -65 l35 -18 -35
36 c-50 52 -24 43 44 -16 52 -45 61 -49 74 -35 13 13 12 18 -12 46 -14 17 -26
35 -26 40 0 5 -11 22 -25 38 -15 18 -21 33 -15 37 10 6 -8 36 -58 99 -17 21
-20 32 -12 41 8 10 3 21 -20 46 -18 21 -29 41 -26 52 5 21 -42 97 -61 97 -16
0 -39 44 -48 93 -5 23 -13 37 -22 37 -11 0 -13 7 -8 29 3 17 2 32 -4 36 -6 3
-11 14 -11 23 0 9 -15 27 -33 39 -18 13 -44 41 -57 64 -14 23 -33 48 -42 57
-10 9 -18 22 -18 28 0 6 -11 19 -25 28 -14 9 -25 23 -25 31 0 21 6 19 57 -20
25 -19 51 -35 57 -35 6 0 5 -4 -3 -9 -8 -5 -11 -16 -7 -26 5 -14 9 -15 21 -5
20 17 19 32 -6 64 -14 17 -27 25 -37 21 -10 -4 -32 11 -63 41 -42 42 -50 46
-65 34 -14 -13 -19 -11 -36 13 -29 40 -73 61 -97 45 -15 -9 -22 -8 -36 5 -19
19 -51 22 -61 6z m131 -59 c3 -5 16 -10 28 -10 13 0 34 -15 52 -37 41 -51 75
-102 75 -112 0 -4 9 -16 20 -26 11 -10 20 -25 20 -34 0 -9 11 -33 25 -53 14
-20 25 -41 25 -46 0 -5 9 -17 20 -27 11 -10 20 -24 20 -31 0 -7 9 -29 21 -48
28 -48 102 -246 92 -246 -3 0 -21 16 -39 34 -19 19 -44 38 -54 41 -11 4 -20
10 -20 14 0 5 -14 25 -30 46 -17 21 -28 40 -25 43 3 3 23 -5 45 -17 49 -27 52
-16 7 21 -22 17 -50 61 -83 127 -26 56 -52 101 -56 101 -5 0 -8 10 -8 23 0 12
-7 31 -15 41 -8 11 -13 28 -9 38 6 20 -6 24 -23 7 -9 -9 -14 -2 -22 27 -6 22
-28 56 -51 78 -22 22 -40 43 -40 48 0 11 18 10 25 -2z m325 -320 c0 -5 -4 -10
-10 -10 -5 0 -10 5 -10 10 0 6 5 10 10 10 6 0 10 -4 10 -10z m-120 -100 c0 -9
5 -21 11 -27 6 -6 9 -17 7 -24 -6 -19 -35 28 -42 71 -7 33 -6 34 9 16 8 -11
15 -27 15 -36z m-105 20 c3 -5 1 -10 -4 -10 -6 0 -11 5 -11 10 0 6 2 10 4 10
3 0 8 -4 11 -10z m73 -76 c7 -21 16 -48 21 -59 16 -34 23 -77 12 -70 -10 6
-91 164 -91 178 0 3 10 3 23 -2 14 -5 27 -23 35 -47z m275 -106 c11 -14 20
-39 21 -54 1 -16 13 -51 26 -79 12 -27 26 -59 30 -70 4 -11 18 -41 31 -67 25
-50 21 -72 -7 -44 -9 9 -14 20 -10 23 3 3 -4 20 -17 37 -31 42 -78 144 -76
165 1 9 -8 38 -19 64 -12 27 -22 51 -22 54 0 12 25 -5 43 -29z m-81 -84 c52
-43 44 -33 52 -69 6 -28 6 -29 -9 -10 -8 11 -36 41 -62 68 -56 55 -44 63 19
11z m75 -146 c-3 -8 -6 -5 -6 6 -1 11 2 17 5 13 3 -3 4 -12 1 -19z"></path>
<path d="M3578 3338 c-4 -91 2 -150 25 -218 54 -162 77 -220 88 -220 4 0 7 41
6 90 -1 86 -2 90 -24 90 -40 0 -73 98 -73 218 0 41 -4 72 -10 72 -5 0 -11 -15
-12 -32z"></path>
<path d="M2606 3275 c-18 -13 -18 -15 4 -44 12 -17 22 -31 24 -31 2 0 -4 69
-7 82 -1 4 -10 0 -21 -7z"></path>
<path d="M3182 3219 c5 -14 98 -52 98 -41 0 9 -29 26 -73 42 -21 7 -28 7 -25
-1z"></path>
<path d="M2802 3209 c2 -7 10 -15 17 -17 8 -3 12 1 9 9 -2 7 -10 15 -17 17 -8
3 -12 -1 -9 -9z"></path>
<path d="M2640 3176 c0 -8 5 -18 10 -21 6 -3 10 1 10 9 0 8 -4 18 -10 21 -5 3
-10 -1 -10 -9z"></path>
<path d="M2616 3136 c6 -16 34 -30 34 -18 0 5 -5 13 -12 20 -16 16 -29 15 -22
-2z"></path>
<path d="M3370 3141 c0 -5 10 -11 23 -15 36 -9 43 -6 23 9 -22 17 -46 20 -46
6z"></path>
<path d="M3450 3124 c0 -14 36 -33 63 -34 37 0 34 13 -6 28 -37 13 -57 15 -57
6z"></path>
<path d="M3770 3115 c0 -8 5 -15 10 -15 6 0 10 7 10 15 0 8 -4 15 -10 15 -5 0
-10 -7 -10 -15z"></path>
<path d="M2656 3093 c-5 -18 -2 -31 10 -42 15 -15 16 -14 11 6 -3 13 -1 26 4
29 14 8 11 34 -5 34 -8 0 -17 -12 -20 -27z"></path>
<path d="M3811 3074 c-11 -15 -21 -33 -21 -41 0 -7 -11 -31 -25 -53 -14 -22
-25 -45 -25 -52 0 -6 -9 -21 -20 -33 -17 -18 -18 -26 -9 -58 11 -40 6 -57 -15
-57 -8 0 -19 -6 -26 -14 -9 -12 -17 -12 -35 -4 -27 12 -50 -1 -85 -45 -12 -15
-27 -27 -35 -27 -7 0 -20 -11 -29 -24 -8 -14 -26 -26 -38 -28 -16 -2 -27 -16
-39 -51 -10 -27 -26 -60 -36 -74 -18 -26 -21 -31 -41 -70 -14 -27 -15 -92 -2
-113 9 -13 10 -13 11 0 1 8 1 21 0 28 -3 19 17 14 23 -5 3 -10 24 -27 46 -37
40 -19 48 -30 31 -41 -6 -3 -19 5 -30 17 l-21 22 0 -30 c1 -49 17 -118 29
-122 6 -2 11 -9 11 -16 0 -7 6 -21 14 -31 12 -16 16 -17 30 -6 11 9 14 22 9
38 -7 30 14 28 31 -2 6 -11 19 -26 30 -35 16 -14 17 -17 2 -29 -10 -8 -16 -29
-16 -52 0 -39 2 -41 45 -43 30 -2 32 -36 2 -36 -24 0 -75 -36 -65 -46 3 -3 34
-6 68 -8 67 -2 90 -18 90 -63 0 -25 -7 -28 -29 -14 -9 6 -10 11 -2 15 16 10
13 29 -3 23 -8 -3 -17 -1 -20 6 -2 7 -5 6 -5 -4 -1 -25 -50 -64 -79 -64 -23 0
-28 -5 -32 -32 -6 -38 -42 -68 -90 -76 -68 -10 -127 -39 -174 -84 -26 -25 -45
-47 -42 -50 10 -10 66 9 66 23 0 15 27 19 48 5 8 -5 12 -17 10 -27 -2 -14 -18
-21 -68 -30 -162 -29 -179 -35 -208 -73 -15 -20 -33 -48 -39 -63 -7 -14 -22
-29 -35 -33 -32 -10 -58 -35 -58 -55 0 -24 -36 -56 -43 -38 -3 9 -11 5 -23
-12 -10 -14 -38 -46 -63 -73 -24 -26 -41 -50 -37 -54 3 -4 12 -1 18 5 7 7 25
12 40 12 l29 0 -34 -30 c-27 -23 -44 -30 -76 -30 -35 0 -43 -4 -51 -25 -5 -14
-17 -25 -27 -25 -13 0 -14 3 -5 12 7 7 12 22 12 33 0 12 11 42 24 66 19 37 28
44 50 42 21 -1 25 1 17 10 -7 9 -1 29 20 70 16 31 29 63 29 71 0 7 8 24 19 37
10 13 22 40 26 59 13 62 45 116 103 179 31 33 60 61 65 61 20 0 2 -38 -42 -89
-55 -64 -67 -84 -87 -149 -16 -55 -19 -126 -4 -117 6 3 10 18 10 32 0 14 6 39
13 56 8 18 20 50 27 72 13 43 46 85 66 85 24 0 59 89 55 138 -1 15 -17 16 -34
2 -57 -49 -109 -81 -121 -77 -10 4 -13 1 -9 -9 6 -16 -22 -43 -45 -44 -7 0
-18 13 -23 29 -17 48 -59 53 -59 7 0 -24 28 -56 48 -56 24 0 11 -37 -36 -102
-27 -36 -70 -108 -96 -160 -26 -51 -56 -109 -66 -128 -11 -19 -29 -62 -41 -95
-41 -114 -51 -124 -64 -66 -3 16 -13 32 -21 35 -8 3 -14 12 -14 20 0 9 -9 20
-21 27 -22 11 -22 20 -2 168 5 41 5 43 -17 36 -22 -7 -22 -7 5 46 52 99 55
107 55 133 0 34 -25 25 -39 -15 -5 -16 -13 -29 -16 -29 -10 0 -90 57 -103 73
-7 8 -52 27 -100 43 -98 31 -122 46 -115 75 3 10 1 19 -5 19 -5 0 -12 -10 -15
-21 -4 -16 -10 -20 -24 -14 -10 4 -39 11 -65 15 -26 3 -55 13 -65 22 -18 15
-85 37 -133 42 -65 8 -85 27 -81 77 1 8 -12 27 -29 42 -33 30 -38 28 -14 -8 8
-13 14 -38 12 -57 -2 -26 -7 -32 -23 -30 -49 7 -65 13 -65 27 0 21 -18 19 -22
-2 -4 -23 -116 -31 -124 -8 -8 19 -24 20 -24 1 0 -7 -10 -20 -22 -29 -21 -13
-26 -12 -68 16 -31 22 -54 30 -76 28 -81 -7 -22 43 65 56 38 6 61 19 61 35 0
6 -8 7 -17 3 -10 -3 -58 -18 -108 -32 -49 -14 -91 -27 -93 -28 -8 -7 12 -55
23 -55 7 0 20 -12 30 -26 15 -23 21 -25 84 -23 37 1 73 -1 80 -5 6 -4 19 0 28
10 35 35 372 -2 499 -54 27 -12 76 -28 109 -36 33 -8 100 -35 149 -60 50 -25
95 -46 103 -46 7 0 17 -9 23 -20 6 -11 16 -20 23 -20 30 0 87 -22 81 -31 -3
-6 -15 -9 -25 -6 -11 3 -19 1 -19 -4 0 -6 -8 -5 -20 1 -15 8 -26 7 -42 -1 -13
-7 -39 -12 -59 -10 -22 1 -41 -4 -49 -14 -7 -8 -20 -15 -29 -15 -9 0 -21 -4
-26 -9 -6 -5 -40 -18 -77 -30 -61 -19 -98 -20 -98 -2 0 4 -16 15 -35 24 -20 9
-38 25 -42 34 -11 33 -35 53 -57 48 -12 -3 -39 3 -61 15 -21 11 -45 20 -53 20
-7 0 -24 12 -39 26 -23 23 -26 24 -43 9 -17 -15 -19 -15 -23 2 -4 17 -5 17 -6
0 -1 -12 -7 -17 -18 -13 -10 2 -34 7 -53 11 -19 3 -44 10 -55 15 -11 4 -28 11
-38 14 -13 4 -16 12 -11 31 3 14 2 25 -4 25 -5 0 -12 -10 -15 -21 -5 -20 -10
-21 -59 -15 -29 4 -55 11 -56 17 -2 5 -9 6 -15 2 -7 -5 -36 -8 -66 -8 -30 0
-56 -5 -58 -11 -2 -6 42 -15 119 -23 68 -8 143 -21 168 -31 25 -10 81 -26 125
-35 44 -10 89 -24 100 -31 11 -6 54 -22 95 -35 41 -13 84 -31 95 -40 11 -9 36
-25 55 -34 19 -10 38 -22 41 -28 7 -10 63 -1 297 53 73 16 142 34 152 40 13 7
21 7 25 0 3 -6 -2 -13 -12 -16 -10 -3 -29 -10 -43 -15 -14 -5 -109 -27 -211
-48 -102 -22 -194 -43 -203 -47 -11 -4 -21 -2 -26 6 -10 17 -110 27 -110 11 0
-6 -11 -11 -24 -11 -30 0 -44 -18 -20 -27 15 -6 71 5 117 22 10 4 17 3 17 -4
0 -6 -6 -11 -14 -11 -16 0 -46 -26 -46 -41 0 -5 6 -9 13 -9 7 0 23 -11 34 -24
17 -19 19 -31 13 -65 -12 -68 -4 -89 41 -96 26 -5 45 -3 54 5 9 7 15 8 15 2 0
-20 -29 -32 -101 -42 -41 -5 -95 -12 -121 -16 -39 -6 -48 -4 -48 9 0 17 49 37
92 37 36 0 33 24 -3 27 -33 3 -124 -29 -125 -44 -3 -26 -5 -28 -17 -11 -12 15
-22 15 -146 -2 -74 -11 -145 -22 -160 -25 -14 -3 -57 0 -96 6 -38 5 -92 9
-120 8 -112 -5 -269 -3 -415 4 -85 4 -183 9 -218 11 -76 3 -95 17 -64 46 12
12 22 31 22 45 0 34 10 56 23 48 5 -3 42 -8 80 -10 59 -4 80 -10 124 -39 29
-18 53 -30 53 -26 -2 29 -89 92 -129 92 -31 0 -81 34 -81 55 0 7 7 18 15 25 8
7 15 17 15 23 0 5 -9 2 -19 -7 -10 -10 -21 -14 -24 -9 -7 13 13 73 24 73 6 0
7 5 4 10 -3 6 -2 10 3 10 5 0 29 13 53 30 24 16 52 30 62 30 10 0 17 8 17 19
0 10 6 21 14 24 8 3 16 18 18 32 2 20 16 34 56 56 29 16 58 29 63 29 18 0 134
61 146 76 6 9 26 17 44 17 31 2 33 0 42 -40 8 -41 19 -53 32 -34 3 5 1 12 -5
16 -5 3 -10 22 -10 41 0 22 -6 37 -15 40 -24 10 -17 22 13 26 15 2 32 -3 38
-11 7 -9 18 -12 30 -7 18 7 18 8 1 20 -9 7 -17 18 -17 25 0 6 -5 11 -12 11
-18 0 -95 -39 -108 -56 -7 -7 -16 -14 -21 -14 -5 0 -28 -12 -52 -27 -23 -15
-63 -35 -88 -44 -54 -19 -179 -88 -179 -97 0 -4 4 -13 9 -21 12 -18 3 -41 -16
-41 -7 0 -50 -24 -93 -52 -76 -50 -80 -55 -74 -84 4 -24 -2 -40 -35 -84 -44
-58 -48 -69 -30 -87 15 -15 2 -51 -27 -69 -19 -13 -30 -14 -55 -5 -38 13 -79
14 -79 2 0 -5 13 -11 29 -14 15 -3 41 -17 57 -30 16 -13 43 -28 59 -34 30 -11
297 -34 365 -31 49 1 301 -10 305 -14 2 -1 42 -1 90 2 64 4 89 2 99 -8 11 -11
18 -11 35 -2 12 6 57 13 99 15 42 2 86 5 97 7 13 2 20 -3 20 -14 0 -25 11 -30
25 -13 7 9 29 15 52 15 25 0 41 5 44 15 6 14 8 14 18 -1 10 -13 17 -14 34 -5
17 9 23 8 30 -5 7 -12 14 -14 28 -6 10 5 36 12 57 16 30 6 37 4 37 -10 0 -12
6 -15 23 -11 12 3 51 11 87 16 36 6 84 16 108 23 29 7 46 8 53 1 7 -7 36 -4
91 10 65 18 82 26 93 48 15 28 66 45 92 31 12 -7 12 -10 -2 -22 -10 -8 -29
-14 -43 -15 -19 0 -26 -6 -27 -23 -2 -33 7 -34 49 -6 22 15 42 22 47 17 5 -5
17 -33 27 -63 11 -31 25 -55 33 -55 7 0 30 29 51 65 36 61 41 66 95 83 55 17
85 17 82 0 -3 -21 4 -21 39 -3 53 28 159 53 201 47 20 -2 53 2 74 9 20 7 44
11 52 8 19 -7 85 14 85 28 0 6 -14 8 -37 3 -20 -4 -82 -8 -138 -10 -68 -2
-120 -10 -162 -24 -71 -24 -73 -24 -73 -12 0 12 40 27 134 51 44 11 94 31 112
45 19 14 39 22 48 19 12 -4 16 0 16 15 0 14 6 21 20 21 10 0 24 9 30 19 5 11
17 27 26 35 13 14 14 16 0 16 -8 0 -18 -5 -21 -10 -9 -14 -81 -50 -100 -50
-28 0 -15 32 34 84 27 28 73 78 101 111 56 65 108 99 130 85 14 -9 15 -4 -21
-145 -7 -29 -7 -45 2 -62 9 -18 10 -29 1 -48 -10 -21 -9 -30 4 -50 9 -14 14
-36 12 -50 -4 -17 -1 -25 8 -25 7 0 29 -24 47 -52 45 -70 70 -92 96 -83 17 5
23 1 32 -22 19 -49 59 -82 59 -48 0 23 9 19 56 -25 43 -40 64 -49 64 -30 0 23
48 7 102 -36 57 -45 58 -45 58 -20 0 31 12 33 48 8 44 -29 101 -52 107 -42 3
5 1 11 -5 15 -35 22 32 22 128 0 31 -7 45 6 22 20 -16 10 -1 25 25 25 62 0
188 70 205 114 4 12 15 28 24 35 23 19 21 45 -4 38 -24 -6 -42 13 -30 33 10
16 -14 50 -37 50 -7 0 -13 9 -13 20 0 19 -105 100 -130 100 -6 0 -21 11 -34
25 -13 14 -39 30 -57 37 -19 6 -46 19 -61 30 -14 10 -33 18 -41 18 -9 0 -19 5
-22 10 -3 6 -17 10 -30 10 -25 0 -55 33 -55 60 0 8 -11 32 -24 51 -14 21 -23
45 -20 56 5 18 11 18 87 10 45 -4 109 -6 142 -3 68 6 146 -14 230 -59 44 -24
58 -26 116 -22 38 3 89 16 123 31 67 30 234 125 242 137 3 5 25 9 49 9 38 0
46 4 57 28 10 20 22 28 46 30 48 5 39 22 -12 22 -39 0 -45 -3 -56 -30 -9 -22
-19 -30 -39 -30 -14 0 -46 -7 -71 -16 -25 -9 -82 -17 -128 -18 -61 -2 -86 -7
-95 -19 -10 -13 -21 -14 -72 -5 -33 5 -88 7 -122 4 -63 -5 -63 -5 -64 22 -2
23 -2 24 -6 4 -3 -13 -12 -22 -23 -22 -16 0 -18 6 -14 38 5 34 4 36 -10 18
-18 -22 -29 -16 -46 23 -6 16 -20 31 -29 34 -23 6 -33 66 -19 105 11 27 14 29
47 21 44 -10 61 3 38 29 -33 37 6 82 72 82 16 0 40 9 55 21 30 24 97 32 311
40 52 2 175 -67 160 -91 -2 -3 20 -6 48 -7 48 -1 50 0 32 14 -11 8 -43 26 -72
39 -29 13 -56 31 -61 40 -12 21 -77 33 -188 34 -108 0 -184 -13 -237 -40 -20
-11 -47 -20 -58 -20 -28 0 -148 -56 -189 -89 -62 -49 -137 -47 -105 3 17 28
35 115 35 175 0 67 17 111 59 148 24 21 31 32 20 33 -8 0 -26 -11 -39 -25 -12
-13 -26 -22 -31 -20 -13 9 41 95 60 95 9 0 27 14 39 30 13 17 27 30 32 30 6 0
45 27 88 60 44 33 86 60 95 60 10 0 17 5 17 10 0 6 -4 10 -10 10 -14 0 -82
-39 -106 -61 -11 -10 -25 -19 -32 -19 -12 0 -131 -88 -177 -131 -17 -16 -34
-29 -38 -29 -11 0 -8 38 3 45 6 3 10 17 10 31 0 13 6 24 13 24 6 0 17 11 24
25 17 38 -4 31 -49 -15 -42 -45 -46 -64 -22 -98 15 -22 14 -27 -15 -86 -17
-35 -31 -68 -31 -74 0 -7 -9 -31 -19 -54 -27 -60 -51 -149 -51 -186 0 -33 -14
-43 -23 -18 -8 19 9 144 21 159 6 7 15 31 21 55 7 24 18 42 26 42 7 0 13 8 13
18 -1 9 6 41 16 70 15 44 16 58 6 82 -7 17 -10 43 -8 60 5 32 -4 46 -22 35 -6
-4 -7 -12 -1 -22 11 -21 -21 -113 -60 -169 -16 -24 -29 -47 -28 -51 3 -10 -10
-60 -24 -98 -11 -28 -12 -163 -1 -216 4 -21 1 -28 -16 -32 -16 -4 -20 -2 -15
12 3 9 -4 36 -16 60 -11 24 -18 49 -15 57 7 17 -20 69 -28 55 -5 -7 -15 -7
-31 1 -36 16 -31 24 15 23 22 0 40 3 40 7 0 5 -10 8 -22 8 -53 0 -70 13 -82
61 0 3 -9 13 -18 23 -10 10 -18 22 -18 27 0 15 17 10 24 -6 10 -28 28 -16 24
15 -4 26 -2 29 14 24 19 -6 25 10 8 21 -8 5 -8 11 0 20 8 10 7 21 -5 44 -16
32 -7 42 15 16 16 -19 39 -19 64 0 11 8 27 13 36 10 9 -3 33 2 53 10 46 19 48
46 7 75 -19 14 -30 30 -30 46 0 21 3 23 19 15 15 -8 20 -6 29 14 22 49 92 71
77 25 -7 -22 6 -32 25 -20 10 6 15 27 15 62 1 45 7 62 43 115 45 66 48 73 32
73 -5 0 -10 -6 -10 -14 0 -20 -82 -96 -104 -96 -14 0 -16 -3 -8 -13 7 -8 6
-18 -4 -31 -11 -16 -16 -17 -29 -6 -13 11 -14 16 -2 34 27 40 72 86 84 86 7 0
13 3 13 8 0 4 25 27 55 51 30 24 53 46 51 48 -6 6 -103 -44 -111 -57 -4 -6
-11 -8 -16 -4 -6 3 -19 -2 -29 -11 -11 -10 -26 -15 -35 -12 -10 4 -17 -1 -21
-18 -3 -14 -17 -28 -34 -34 -16 -5 -37 -19 -47 -30 -24 -29 -30 -26 -26 12 3
17 6 48 7 68 2 43 30 89 54 89 9 0 30 7 46 15 15 8 35 15 43 15 12 0 13 3 3
14 -10 13 -17 12 -50 -5 -36 -19 -41 -19 -62 -5 -45 30 -69 73 -62 111 3 19
10 38 15 41 5 3 9 13 9 23 0 10 14 30 30 44 17 15 30 36 30 48 0 11 5 29 11
41 16 31 4 32 -20 2z m-43 -328 c2 -29 -4 -40 -45 -75 -27 -22 -53 -41 -59
-41 -17 0 -45 47 -38 64 3 9 12 16 19 16 8 0 26 5 42 11 21 8 24 12 13 19 -8
5 -12 10 -10 12 59 38 75 37 78 -6z m-138 -14 c0 -11 -16 -27 -40 -41 -39 -22
-55 -14 -24 11 8 7 23 21 32 31 21 22 32 22 32 -1z m-1 -93 c22 -28 22 -31 7
-48 -9 -10 -16 -21 -16 -26 0 -17 -32 -44 -46 -38 -16 6 -19 -8 -4 -23 6 -6 5
-23 -4 -46 -16 -50 -22 -54 -36 -28 -9 17 -9 29 0 50 7 16 9 34 5 40 -12 20
16 112 36 117 11 3 19 12 19 19 0 21 13 16 39 -17z m104 -68 c-1 -40 -4 -75
-7 -78 -3 -3 -22 -1 -43 4 -49 11 -54 39 -15 85 16 18 32 41 35 51 4 10 13 17
20 14 8 -3 11 -26 10 -76z m-209 50 c3 -5 -1 -14 -8 -20 -16 -13 -32 2 -21 19
8 12 22 13 29 1z m-53 -117 c12 -14 11 -16 -5 -13 -11 2 -21 10 -24 17 -5 17
13 15 29 -4z m171 -43 c-5 -44 -23 -40 -37 7 -6 21 -4 23 17 20 18 -2 22 -9
20 -27z m-92 -91 c0 -35 -12 -38 -40 -10 -24 24 -18 40 16 40 20 0 24 -5 24
-30z m235 -43 c24 -18 12 -35 -30 -43 -18 -3 -36 -12 -39 -20 -7 -18 -35 -18
-42 -1 -3 8 0 26 5 41 9 22 14 25 30 17 14 -8 20 -7 25 4 7 19 27 19 51 2z
m25 -628 c0 -9 7 -22 15 -29 16 -14 21 -35 5 -25 -10 6 -60 101 -60 113 1 15
40 -44 40 -59z m-226 25 c12 -31 6 -63 -16 -78 -17 -12 -20 -18 -10 -28 7 -7
12 -20 12 -30 0 -14 -4 -13 -25 8 -19 19 -23 31 -19 57 13 75 42 112 58 71z
m-2286 -20 c12 -4 22 -10 22 -15 0 -15 -57 -10 -70 6 -10 12 -9 15 6 15 11 0
29 -3 42 -6z m2532 -151 c0 -8 -4 -11 -10 -8 -5 3 -10 17 -10 30 0 13 -5 27
-10 30 -6 4 -7 11 -4 17 7 11 34 -44 34 -69z m300 67 c0 -5 -4 -10 -10 -10 -5
0 -10 5 -10 10 0 6 5 10 10 10 6 0 10 -4 10 -10z m-520 -40 c0 -5 -2 -10 -4
-10 -3 0 -8 5 -11 10 -3 6 -1 10 4 10 6 0 11 -4 11 -10z m10 -70 c0 -5 -4 -10
-10 -10 -5 0 -10 5 -10 10 0 6 5 10 10 10 6 0 10 -4 10 -10z m-815 -77 c-10
-43 -53 -131 -100 -202 -23 -36 -52 -82 -64 -101 l-22 -35 7 30 c7 36 35 96
50 110 11 10 33 51 90 168 30 60 51 76 39 30z m-385 -362 c0 -12 -23 -24 -82
-44 -92 -30 -98 -31 -98 -17 0 12 73 50 98 50 10 0 27 9 36 19 20 22 46 17 46
-8z m1260 -8 c0 -10 -32 -43 -42 -43 -10 0 -11 34 -1 43 8 9 43 9 43 0z m-923
-19 c-3 -3 -12 -4 -19 -1 -8 3 -5 6 6 6 11 1 17 -2 13 -5z m-137 -20 c0 -8 -5
-12 -10 -9 -6 4 -8 11 -5 16 9 14 15 11 15 -7z m974 -46 c-11 -18 -32 -7 -37
19 -8 41 3 49 24 17 10 -15 16 -31 13 -36z m-1014 12 c0 -5 -5 -10 -11 -10 -5
0 -7 5 -4 10 3 6 8 10 11 10 2 0 4 -4 4 -10z m-342 -12 c-5 -16 -58 -24 -58
-9 0 8 13 13 53 20 5 0 7 -5 5 -11z m1315 -44 c-4 -10 -9 -12 -15 -6 -12 12
-1 35 12 27 5 -3 6 -13 3 -21z m157 22 c0 -3 -4 -8 -10 -11 -5 -3 -10 -1 -10
4 0 6 5 11 10 11 6 0 10 -2 10 -4z m240 -27 c0 -5 -4 -9 -10 -9 -5 0 -10 7
-10 16 0 8 5 12 10 9 6 -3 10 -10 10 -16z m-2345 1 c-3 -5 -13 -10 -21 -10 -8
0 -14 5 -14 10 0 6 9 10 21 10 11 0 17 -4 14 -10z m2065 -40 c0 -11 -2 -20 -5
-20 -2 0 -9 9 -15 20 -9 16 -8 20 5 20 8 0 15 -9 15 -20z m169 6 c10 -11 9
-21 -4 -46 -14 -28 -35 -33 -35 -9 0 6 -7 17 -15 26 -12 12 -13 18 -4 29 15
18 43 18 58 0z m161 -31 c7 -9 10 -18 7 -21 -10 -11 -37 5 -37 21 0 19 14 19
30 0z"></path>
<path d="M4473 3067 c-18 -13 -29 -28 -24 -33 4 -5 15 -44 25 -88 14 -67 15
-91 5 -162 -11 -79 -11 -86 8 -107 11 -12 25 -41 32 -64 13 -46 24 -53 40 -25
9 16 11 16 24 -2 10 -14 21 -17 40 -12 35 8 36 -10 2 -26 -14 -6 -25 -15 -25
-20 0 -5 18 1 40 12 25 13 60 20 97 21 32 0 85 4 118 8 51 7 64 5 84 -11 15
-11 40 -18 68 -18 24 0 60 -7 80 -15 19 -8 44 -15 55 -15 11 0 32 -13 46 -28
29 -30 95 -52 157 -52 25 0 47 -8 67 -25 16 -14 36 -25 44 -25 8 0 22 -4 32
-10 9 -5 29 -14 45 -20 16 -6 27 -17 27 -29 0 -23 19 -39 84 -71 32 -16 52
-32 54 -45 2 -11 15 -30 28 -42 18 -15 21 -23 12 -27 -7 -3 1 -5 17 -4 43 1
62 -10 74 -42 7 -20 25 -37 60 -55 28 -14 58 -37 67 -51 10 -14 34 -34 56 -45
21 -11 49 -37 62 -58 14 -21 39 -49 55 -61 17 -12 31 -30 31 -40 0 -27 32 -82
102 -173 32 -44 62 -86 65 -94 3 -8 27 -36 53 -62 25 -25 51 -61 57 -78 11
-30 10 -32 -39 -62 -45 -29 -52 -30 -67 -17 -9 9 -26 13 -38 10 -13 -4 -25 1
-34 13 -19 25 -64 53 -86 53 -10 1 -36 12 -58 25 -40 25 -51 30 -137 68 -26
11 -49 26 -52 33 -10 26 -87 68 -129 70 -23 0 -66 13 -96 28 -30 14 -62 26
-71 26 -24 0 -61 30 -58 47 2 9 -3 18 -11 21 -8 3 -11 0 -7 -7 14 -22 -25 -23
-71 0 -26 12 -79 30 -118 39 -41 10 -69 21 -68 28 2 7 -6 12 -17 12 -10 0 -61
13 -111 30 -51 16 -94 28 -97 26 -9 -10 11 -26 33 -26 29 0 41 -16 25 -35 -10
-12 -9 -15 4 -15 9 0 16 4 16 9 0 17 33 21 49 7 9 -8 42 -23 73 -33 55 -17 75
-33 44 -33 -17 0 -18 -39 -1 -41 5 -1 35 -2 65 -3 56 -2 159 -21 195 -36 11
-5 38 -14 60 -20 22 -7 65 -23 95 -37 30 -14 69 -31 85 -38 46 -18 115 -51
165 -79 25 -13 85 -44 133 -68 58 -28 92 -51 100 -68 8 -17 24 -27 52 -32 22
-5 44 -13 49 -18 17 -17 54 -11 61 10 3 11 13 20 20 20 30 0 85 42 85 64 0 30
-54 110 -96 144 -19 15 -34 34 -34 43 0 9 -15 32 -32 51 -18 19 -55 67 -81
107 -37 55 -47 78 -43 96 5 20 0 29 -31 48 -50 32 -75 61 -71 83 2 13 -10 23
-51 38 -34 14 -57 29 -62 43 -4 12 -33 34 -66 51 -50 25 -58 33 -58 58 -1 33
-26 50 -88 60 -42 7 -55 20 -38 37 22 22 10 34 -59 61 -75 30 -85 38 -85 74 0
18 -9 27 -40 39 -22 8 -55 17 -73 20 -19 3 -39 15 -48 28 -12 19 -26 23 -88
28 -85 6 -113 18 -118 49 -2 18 -14 24 -68 35 -36 8 -90 16 -120 20 -42 4 -60
11 -75 30 -17 21 -24 23 -50 14 -16 -5 -58 -12 -93 -15 -50 -5 -64 -3 -68 9
-7 16 -44 21 -44 6 0 -5 -19 -8 -42 -6 -42 3 -42 4 -63 61 -17 52 -23 59 -43
56 -20 -3 -23 0 -17 17 4 12 2 21 -4 21 -6 0 -11 5 -11 10 0 6 7 10 15 10 8 0
15 9 15 20 0 11 -6 20 -13 20 -9 0 -13 18 -14 63 0 34 -4 97 -9 140 l-9 78
-32 -24z m97 -443 c0 -8 -4 -14 -10 -14 -5 0 -10 9 -10 21 0 11 5 17 10 14 6
-3 10 -13 10 -21z m830 -944 c0 -5 -4 -10 -10 -10 -5 0 -10 5 -10 10 0 6 5 10
10 10 6 0 10 -4 10 -10z"></path>
<path d="M4250 3049 c0 -5 5 -7 10 -4 6 3 10 8 10 11 0 2 -4 4 -10 4 -5 0 -10
-5 -10 -11z"></path>
<path d="M2714 2983 c14 -56 61 -139 118 -207 32 -38 58 -78 58 -88 0 -11 11
-34 24 -51 13 -18 33 -59 46 -92 12 -33 27 -70 32 -81 6 -12 11 -35 12 -50 2
-16 8 -42 15 -59 6 -16 14 -36 16 -42 7 -19 60 -15 78 5 23 25 23 56 0 48 -21
-8 -33 10 -33 51 0 17 -4 35 -10 38 -5 3 -10 20 -10 36 0 26 -3 29 -21 24 -18
-6 -20 -4 -14 14 4 12 0 30 -9 43 -9 12 -16 33 -16 45 0 18 -6 23 -25 23 -15
0 -25 6 -25 14 0 8 -7 17 -16 20 -13 5 -15 15 -9 56 7 52 1 62 -20 33 -11 -15
-15 -15 -29 -4 -9 7 -16 19 -16 26 0 7 -7 19 -16 26 -24 20 -92 127 -105 166
-13 40 -34 45 -25 6z"></path>
<path d="M2990 3002 c0 -10 22 -32 32 -32 5 0 3 9 -4 20 -13 20 -28 27 -28 12z"></path>
<path d="M4031 2898 c22 -61 39 -83 39 -50 0 18 -46 102 -55 102 -2 0 5 -23
16 -52z"></path>
<path d="M2940 2850 c0 -5 5 -10 10 -10 6 0 10 5 10 10 0 6 -4 10 -10 10 -5 0
-10 -4 -10 -10z"></path>
<path d="M3400 2827 c0 -21 35 -67 51 -67 25 0 24 1 -11 39 -27 28 -40 37 -40
28z"></path>
<path d="M2290 2801 c0 -9 59 -31 83 -31 20 0 4 20 -20 26 -16 3 -36 8 -45 11
-10 2 -18 0 -18 -6z"></path>
<path d="M2940 2800 c0 -6 4 -10 8 -10 9 0 72 -86 72 -99 0 -4 11 -18 24 -31
14 -12 28 -35 31 -51 8 -34 31 -83 57 -121 10 -14 18 -33 18 -42 0 -35 121
-246 141 -246 5 0 9 5 9 11 0 22 -40 95 -62 114 -20 17 -21 20 -5 23 19 4 24
22 5 22 -22 0 -68 67 -68 98 0 16 -7 35 -15 42 -16 13 -65 112 -65 130 0 7
-11 21 -25 32 -14 11 -25 24 -25 30 0 5 -16 29 -35 53 -36 43 -65 63 -65 45z"></path>
<path d="M4025 2779 c-4 -6 -4 -13 -1 -16 8 -8 36 5 36 17 0 13 -27 13 -35 -1z"></path>
<path d="M3329 2756 c25 -27 41 -33 41 -16 0 5 -15 17 -32 26 l-33 17 24 -27z"></path>
<path d="M3970 2750 c0 -5 5 -10 10 -10 6 0 10 5 10 10 0 6 -4 10 -10 10 -5 0
-10 -4 -10 -10z"></path>
<path d="M3436 2712 c-3 -6 -1 -14 5 -17 15 -10 25 3 12 16 -7 7 -13 7 -17 1z"></path>
<path d="M4068 2640 c-13 -18 -23 -47 -24 -72 l-2 -41 22 24 c22 24 50 119 35
119 -5 0 -18 -14 -31 -30z"></path>
<path d="M2270 2580 c0 -5 12 -12 28 -15 15 -4 36 -11 47 -18 57 -32 116 -58
124 -55 5 1 -4 18 -20 36 -23 26 -33 31 -43 22 -11 -8 -18 -4 -34 17 -17 23
-22 25 -35 15 -10 -9 -17 -10 -22 -2 -8 13 -45 13 -45 0z"></path>
<path d="M4400 2580 c0 -5 9 -10 20 -10 11 0 20 5 20 10 0 6 -9 10 -20 10 -11
0 -20 -4 -20 -10z"></path>
<path d="M2900 2540 c0 -5 5 -10 11 -10 5 0 7 5 4 10 -3 6 -8 10 -11 10 -2 0
-4 -4 -4 -10z"></path>
<path d="M4870 2529 c0 -5 5 -7 10 -4 6 3 10 8 10 11 0 2 -4 4 -10 4 -5 0 -10
-5 -10 -11z"></path>
<path d="M4444 2520 c-23 -9 -41 -30 -27 -30 15 0 63 25 63 33 0 9 -9 8 -36
-3z"></path>
<path d="M4775 2520 c-11 -18 26 -23 43 -6 15 15 14 16 -10 16 -15 0 -30 -5
-33 -10z"></path>
<path d="M4715 2507 c-10 -8 -15 -19 -11 -25 5 -9 14 -7 31 5 14 10 25 21 25
26 0 12 -25 8 -45 -6z"></path>
<path d="M4085 2480 c-3 -5 -1 -10 4 -10 6 0 11 5 11 10 0 6 -2 10 -4 10 -3 0
-8 -4 -11 -10z"></path>
<path d="M4620 2483 c-60 -19 -178 -81 -221 -115 -20 -15 -40 -28 -44 -28 -15
0 -146 -124 -160 -151 -8 -15 -35 -48 -59 -74 -51 -53 -89 -124 -84 -157 3
-19 5 -20 18 -7 8 9 23 16 33 17 9 1 24 3 32 4 10 1 13 8 10 19 -5 16 5 28 76
82 l23 17 -26 0 c-30 0 -80 -38 -105 -81 -17 -29 -33 -38 -33 -18 0 15 146
159 162 159 18 1 74 48 65 56 -3 4 -25 -5 -48 -20 -51 -34 -67 -24 -19 13 29
22 90 73 150 124 8 8 32 21 52 30 20 10 38 21 40 26 2 5 10 11 18 13 8 2 29
12 45 23 17 11 47 29 68 39 47 24 52 44 7 29z"></path>
<path d="M4195 2470 c-3 -5 -2 -10 4 -10 5 0 13 5 16 10 3 6 2 10 -4 10 -5 0
-13 -4 -16 -10z"></path>
<path d="M4105 2436 c-16 -13 -27 -28 -22 -32 4 -4 13 -2 19 4 7 7 19 12 28
12 9 0 25 9 35 20 18 19 17 20 -6 20 -13 0 -37 -11 -54 -24z"></path>
<path d="M5116 2431 c-4 -5 -2 -12 3 -15 5 -4 12 -2 15 3 4 5 2 12 -3 15 -5 4
-12 2 -15 -3z"></path>
<path d="M2365 2398 c4 -18 11 -38 16 -44 12 -14 129 -48 137 -39 8 8 -18 25
-40 25 -9 0 -20 5 -23 10 -3 6 -17 10 -30 10 -18 0 -26 8 -35 35 -15 45 -34
47 -25 3z"></path>
<path d="M5050 2420 c0 -5 5 -10 10 -10 6 0 10 5 10 10 0 6 -4 10 -10 10 -5 0
-10 -4 -10 -10z"></path>
<path d="M5000 2410 c0 -5 5 -10 10 -10 6 0 10 5 10 10 0 6 -4 10 -10 10 -5 0
-10 -4 -10 -10z"></path>
<path d="M4938 2404 c-4 -3 -38 -12 -76 -20 -39 -8 -96 -23 -127 -34 -61 -21
-135 -73 -135 -96 0 -21 13 -17 46 15 18 18 50 35 80 42 27 7 70 23 96 35 26
13 61 24 77 24 16 0 33 5 36 10 3 6 15 10 26 10 10 0 19 5 19 10 0 11 -33 14
-42 4z"></path>
<path d="M3872 2388 c6 -18 28 -21 28 -4 0 9 -7 16 -16 16 -9 0 -14 -5 -12
-12z"></path>
<path d="M2530 2370 c6 -11 13 -20 16 -20 2 0 0 9 -6 20 -6 11 -13 20 -16 20
-2 0 0 -9 6 -20z"></path>
<path d="M4484 2326 c-26 -22 -27 -24 -7 -19 24 6 49 30 41 39 -3 3 -19 -6
-34 -20z"></path>
<path d="M2544 2329 c-11 -19 9 -27 81 -33 39 -4 90 -10 114 -15 25 -5 51 -7
58 -4 7 3 20 -1 29 -8 13 -10 17 -10 24 2 12 18 -11 27 -71 28 -30 1 -55 8
-72 21 -30 24 -37 25 -37 5 0 -8 -1 -15 -2 -15 -2 0 -28 7 -58 15 -30 8 -56
15 -57 15 -1 0 -5 -5 -9 -11z"></path>
<path d="M3310 2300 c0 -5 5 -10 10 -10 6 0 10 5 10 10 0 6 -4 10 -10 10 -5 0
-10 -4 -10 -10z"></path>
<path d="M3082 2275 c-18 -13 -38 -25 -45 -28 -9 -3 -8 -8 2 -21 13 -15 15
-15 32 0 27 24 52 2 44 -38 -5 -19 -3 -28 6 -28 7 0 31 -17 52 -37 37 -37 39
-37 53 -18 17 23 15 46 -5 53 -9 3 -11 -2 -6 -17 4 -12 2 -21 -4 -21 -6 0 -11
7 -11 15 0 7 -8 19 -17 24 -16 9 -16 12 -3 21 13 9 13 12 -2 20 -9 6 -20 25
-23 43 -7 32 -22 58 -34 56 -3 0 -21 -11 -39 -24z"></path>
<path d="M5313 2293 c-18 -2 -33 -9 -33 -15 0 -7 14 -8 38 -4 20 3 47 6 60 6
12 0 22 5 22 10 0 10 -24 11 -87 3z"></path>
<path d="M2230 2282 c0 -14 77 -72 95 -72 9 0 30 -9 45 -20 49 -35 99 -51 204
-65 56 -7 139 -21 186 -30 47 -10 103 -18 125 -20 22 -1 47 -5 56 -9 9 -4 20
-6 25 -5 5 2 31 -1 58 -5 46 -7 48 -9 43 -35 -5 -24 -2 -28 31 -38 44 -14 51
-10 29 15 -10 10 -17 25 -17 33 0 8 -14 30 -30 49 -26 30 -32 33 -43 20 -18
-23 -43 -16 -170 47 -61 31 -86 24 -29 -8 23 -13 42 -27 42 -31 0 -13 -25 -9
-46 7 -10 8 -36 15 -56 15 -20 0 -40 5 -43 10 -3 6 -19 10 -36 10 -19 0 -42
12 -69 36 -45 40 -51 38 -18 -6 26 -36 18 -49 -16 -26 -15 9 -52 17 -88 19
-44 2 -74 10 -98 25 -19 12 -46 25 -60 29 -14 3 -44 19 -68 34 -46 31 -52 33
-52 21z"></path>
<path d="M4373 2259 c-24 -17 -43 -34 -43 -40 0 -15 16 -10 35 11 10 11 23 20
30 20 7 0 20 9 30 20 28 31 -2 25 -52 -11z"></path>
<path d="M5460 2281 c0 -10 69 -25 77 -17 7 6 -41 26 -63 26 -8 0 -14 -4 -14
-9z"></path>
<path d="M5220 2270 c0 -5 5 -10 10 -10 6 0 10 5 10 10 0 6 -4 10 -10 10 -5 0
-10 -4 -10 -10z"></path>
<path d="M2888 2263 c7 -3 16 -2 19 1 4 3 -2 6 -13 5 -11 0 -14 -3 -6 -6z"></path>
<path d="M2945 2250 c3 -5 8 -10 11 -10 2 0 4 5 4 10 0 6 -5 10 -11 10 -5 0
-7 -4 -4 -10z"></path>
<path d="M5095 2230 c-15 -17 -16 -20 -3 -20 19 0 42 26 30 34 -5 3 -17 -3
-27 -14z"></path>
<path d="M4562 2228 c-14 -14 -16 -28 -3 -28 9 0 24 30 18 36 -2 2 -9 -2 -15
-8z"></path>
<path d="M4660 2230 c0 -5 6 -10 14 -10 8 0 18 5 21 10 3 6 -3 10 -14 10 -12
0 -21 -4 -21 -10z"></path>
<path d="M2980 2214 c0 -8 5 -12 10 -9 6 4 8 11 5 16 -9 14 -15 11 -15 -7z"></path>
<path d="M5635 2210 c3 -5 10 -10 16 -10 5 0 9 5 9 10 0 6 -7 10 -16 10 -8 0
-12 -4 -9 -10z"></path>
<path d="M3755 2200 c-3 -5 -1 -10 4 -10 6 0 11 5 11 10 0 6 -2 10 -4 10 -3 0
-8 -4 -11 -10z"></path>
<path d="M3705 2180 c3 -5 8 -10 11 -10 2 0 4 5 4 10 0 6 -5 10 -11 10 -5 0
-7 -4 -4 -10z"></path>
<path d="M4471 2135 c-30 -30 -52 -58 -49 -61 8 -7 87 48 88 60 0 6 10 20 22
33 15 16 17 23 7 23 -8 0 -38 -25 -68 -55z"></path>
<path d="M4996 2175 c-11 -8 -17 -17 -14 -21 7 -6 48 17 48 28 0 12 -13 9 -34
-7z"></path>
<path d="M4860 2113 c-75 -36 -83 -55 -14 -33 41 14 103 51 104 63 0 12 -11 8
-90 -30z"></path>
<path d="M3390 2120 c11 -20 30 -28 30 -12 0 11 -22 32 -32 32 -5 0 -4 -9 2
-20z"></path>
<path d="M3690 2128 c0 -4 4 -9 10 -13 5 -3 6 -13 3 -21 -4 -12 -1 -15 13 -12
12 2 20 13 22 31 3 23 0 27 -22 25 -14 -1 -26 -6 -26 -10z"></path>
<path d="M2430 2110 c0 -16 120 -90 145 -90 12 0 31 -11 44 -24 12 -12 41 -29
64 -36 23 -7 61 -19 85 -28 38 -13 46 -13 85 2 23 9 50 16 60 16 9 0 17 5 17
11 0 6 -24 9 -62 8 -35 -1 -85 1 -113 6 -57 9 -149 48 -139 58 4 4 -4 7 -19 7
-14 0 -29 5 -32 10 -3 6 -15 10 -25 10 -23 0 -90 38 -90 51 0 5 -4 9 -10 9 -5
0 -10 -5 -10 -10z"></path>
<path d="M4530 2100 c0 -5 9 -10 21 -10 11 0 17 5 14 10 -3 6 -13 10 -21 10
-8 0 -14 -4 -14 -10z"></path>
<path d="M4293 2093 c-59 -6 -54 -23 6 -23 54 0 81 7 81 21 0 9 -6 9 -87 2z"></path>
<path d="M4590 2090 c0 -5 16 -10 35 -10 19 0 35 5 35 10 0 6 -16 10 -35 10
-19 0 -35 -4 -35 -10z"></path>
<path d="M3410 2082 c0 -19 19 -52 30 -52 16 0 12 16 -10 41 -11 14 -19 18
-20 11z"></path>
<path d="M5330 2070 c0 -5 5 -10 10 -10 6 0 10 5 10 10 0 6 -4 10 -10 10 -5 0
-10 -4 -10 -10z"></path>
<path d="M5600 2060 c0 -5 9 -10 20 -10 11 0 20 5 20 10 0 6 -9 10 -20 10 -11
0 -20 -4 -20 -10z"></path>
<path d="M1828 2045 c-7 -7 14 -55 23 -55 4 0 9 8 13 18 3 9 9 23 12 30 6 12
-37 18 -48 7z"></path>
<path d="M1950 2040 c0 -5 16 -10 35 -10 19 0 35 5 35 10 0 6 -16 10 -35 10
-19 0 -35 -4 -35 -10z"></path>
<path d="M4270 2035 c-59 -13 -105 -33 -96 -42 3 -3 18 -1 33 5 15 6 54 16 86
23 31 7 57 16 57 21 0 10 -9 9 -80 -7z"></path>
<path d="M2900 2010 c6 -11 15 -20 20 -20 14 0 12 9 -4 26 -21 20 -28 17 -16
-6z"></path>
<path d="M2790 2010 c0 -5 5 -10 10 -10 6 0 10 5 10 10 0 6 -4 10 -10 10 -5 0
-10 -4 -10 -10z"></path>
<path d="M2830 2010 c0 -5 7 -10 15 -10 8 0 15 5 15 10 0 6 -7 10 -15 10 -8 0
-15 -4 -15 -10z"></path>
<path d="M4770 2001 c0 -5 27 -14 60 -21 47 -10 60 -17 60 -31 0 -13 7 -19 21
-19 17 0 19 4 13 23 -4 12 -16 29 -28 37 -22 16 -126 25 -126 11z"></path>
<path d="M2980 1991 c0 -12 29 -23 41 -15 18 10 9 24 -16 24 -14 0 -25 -4 -25
-9z"></path>
<path d="M5910 1980 c0 -5 5 -10 11 -10 5 0 7 5 4 10 -3 6 -8 10 -11 10 -2 0
-4 -4 -4 -10z"></path>
<path d="M1638 1967 c-33 -9 -38 -15 -38 -39 0 -32 15 -38 23 -8 4 16 14 20
45 20 23 0 44 5 47 10 3 6 31 10 61 10 34 0 53 4 49 10 -8 13 -138 11 -187 -3z"></path>
<path d="M5100 1970 c0 -5 9 -10 20 -10 11 0 20 5 20 10 0 6 -9 10 -20 10 -11
0 -20 -4 -20 -10z"></path>
<path d="M3158 1947 c-16 -13 -28 -26 -28 -30 0 -5 16 -15 35 -23 31 -13 38
-13 60 2 13 9 42 17 64 18 56 3 58 11 9 26 -24 7 -47 17 -52 22 -18 15 -61 8
-88 -15z m60 -18 c-2 -6 -8 -10 -13 -10 -5 0 -11 4 -13 10 -2 6 4 11 13 11 9
0 15 -5 13 -11z"></path>
<path d="M4954 1962 c4 -6 29 -14 57 -18 27 -4 52 -11 55 -15 6 -11 24 -12 24
-1 0 11 -50 30 -99 38 -32 5 -42 4 -37 -4z"></path>
<path d="M4540 1940 c0 -5 14 -10 30 -10 17 0 30 5 30 10 0 6 -13 10 -30 10
-16 0 -30 -4 -30 -10z"></path>
<path d="M3060 1930 c0 -5 5 -10 10 -10 6 0 10 5 10 10 0 6 -4 10 -10 10 -5 0
-10 -4 -10 -10z"></path>
<path d="M2118 1901 c17 -15 32 -35 32 -44 0 -19 0 -19 -60 -7 -25 6 -70 13
-100 16 -30 3 -59 9 -65 14 -5 4 -30 7 -55 5 -27 -2 -54 3 -68 12 -13 8 -31
11 -40 7 -9 -3 -28 -8 -41 -10 -13 -1 -31 -10 -40 -18 -10 -9 -36 -16 -59 -16
-22 0 -44 -4 -47 -10 -9 -14 91 -13 118 2 59 31 311 0 543 -68 44 -13 88 -24
97 -24 10 0 32 -14 50 -31 18 -17 55 -39 82 -48 49 -17 50 -19 48 -55 -2 -22
1 -34 7 -31 6 3 10 11 10 16 0 6 16 31 36 55 40 49 39 72 -1 34 -20 -18 -28
-21 -37 -12 -7 7 -21 12 -31 12 -21 0 -79 32 -113 62 -11 10 -56 27 -100 39
-83 22 -114 41 -114 70 0 9 -15 27 -34 38 -47 29 -57 25 -18 -8z"></path>
<path d="M4670 1920 c0 -5 12 -10 26 -10 14 0 23 4 19 10 -3 6 -15 10 -26 10
-10 0 -19 -4 -19 -10z"></path>
<path d="M2840 1900 c-8 -5 -12 -11 -9 -14 3 -3 14 1 25 9 21 16 8 20 -16 5z"></path>
<path d="M1470 1891 c-36 -5 -46 -10 -48 -27 -2 -17 4 -23 29 -28 74 -15 139
2 72 19 -21 5 -24 8 -12 16 7 5 24 9 37 9 12 0 22 5 22 10 0 11 -26 11 -100 1z
m20 -31 c0 -5 -4 -10 -10 -10 -5 0 -10 5 -10 10 0 6 5 10 10 10 6 0 10 -4 10
-10z"></path>
<path d="M3307 1858 c-31 -32 -36 -42 -26 -54 9 -11 7 -14 -11 -14 -16 0 -20
4 -16 15 3 9 0 15 -9 15 -9 0 -15 -10 -15 -25 0 -19 8 -28 37 -40 21 -9 45
-23 55 -31 25 -24 39 -10 26 27 -6 17 -8 57 -5 90 3 32 4 59 4 58 -1 0 -19
-19 -40 -41z"></path>
<path d="M4640 1880 c0 -5 7 -10 15 -10 8 0 15 5 15 10 0 6 -7 10 -15 10 -8 0
-15 -4 -15 -10z"></path>
<path d="M3386 1864 c-19 -18 -21 -75 -4 -92 18 -18 68 -15 68 3 0 8 -8 15
-17 15 -13 0 -11 6 12 30 l28 29 -28 11 c-15 6 -31 13 -36 15 -4 3 -15 -2 -23
-11z"></path>
<path d="M3526 1872 c-7 -12 4 -52 15 -52 12 0 12 47 0 55 -5 3 -12 2 -15 -3z"></path>
<path d="M4690 1872 c0 -9 46 -24 110 -36 14 -2 36 -8 49 -12 17 -5 23 -4 19
6 -7 22 -178 63 -178 42z"></path>
<path d="M2757 1826 c-31 -37 -33 -44 -17 -41 27 5 45 25 54 58 3 15 5 27 3
27 -1 0 -19 -20 -40 -44z"></path>
<path d="M2905 1861 c-6 -11 9 -23 19 -14 9 9 7 23 -3 23 -6 0 -12 -4 -16 -9z"></path>
<path d="M3560 1860 c0 -5 7 -10 16 -10 8 0 12 5 9 10 -3 6 -10 10 -16 10 -5
0 -9 -4 -9 -10z"></path>
<path d="M5900 1860 c0 -5 5 -10 10 -10 6 0 10 5 10 10 0 6 -4 10 -10 10 -5 0
-10 -4 -10 -10z"></path>
<path d="M5100 1850 c0 -5 7 -10 15 -10 8 0 15 5 15 10 0 6 -7 10 -15 10 -8 0
-15 -4 -15 -10z"></path>
<path d="M4635 1840 c-3 -6 5 -14 19 -20 31 -11 32 -18 9 -36 -16 -12 -15 -13
14 -14 47 0 124 -22 120 -35 -5 -13 -91 -25 -137 -18 -59 8 -62 10 -50 34 11
19 10 20 -12 14 -42 -13 -51 -26 -32 -46 9 -10 21 -17 28 -16 6 1 10 -8 8 -21
-1 -13 2 -31 8 -40 8 -15 9 -15 10 4 0 37 19 44 127 44 57 0 103 3 103 6 0 4
-8 13 -17 20 -10 7 -16 15 -13 17 5 5 93 -5 150 -17 14 -3 42 -8 63 -11 42 -7
51 -25 12 -25 -14 0 -28 -7 -31 -15 -4 -8 -12 -15 -20 -15 -8 0 -14 -4 -14
-10 0 -16 50 -12 56 5 8 21 86 20 131 -1 25 -13 37 -14 46 -5 8 8 8 11 -1 12
-7 1 -16 2 -22 3 -25 3 -12 21 18 24 54 5 36 17 -45 30 -162 26 -424 85 -453
103 -54 32 -69 38 -75 29z"></path>
<path d="M2825 1830 c-3 -5 -1 -10 4 -10 6 0 11 5 11 10 0 6 -2 10 -4 10 -3 0
-8 -4 -11 -10z"></path>
<path d="M5220 1835 c0 -6 38 -22 75 -31 41 -10 28 12 -14 24 -42 13 -61 15
-61 7z"></path>
<path d="M4888 1823 c7 -3 16 -2 19 1 4 3 -2 6 -13 5 -11 0 -14 -3 -6 -6z"></path>
<path d="M4261 1806 c-9 -11 -5 -16 20 -25 18 -6 33 -11 35 -11 1 0 -3 11 -9
25 -13 28 -29 32 -46 11z"></path>
<path d="M1490 1779 c0 -5 5 -7 10 -4 6 3 10 8 10 11 0 2 -4 4 -10 4 -5 0 -10
-5 -10 -11z"></path>
<path d="M1540 1781 c0 -13 29 -35 37 -28 7 8 -15 37 -28 37 -5 0 -9 -4 -9 -9z"></path>
<path d="M2617 1772 c-29 -18 -31 -35 -4 -40 16 -3 41 31 35 48 -2 5 -15 1
-31 -8z"></path>
<path d="M5370 1780 c0 -5 7 -10 15 -10 8 0 15 5 15 10 0 6 -7 10 -15 10 -8 0
-15 -4 -15 -10z"></path>
<path d="M1880 1776 c0 -8 89 -56 105 -56 9 0 35 -16 58 -35 23 -20 47 -33 55
-30 7 3 43 5 78 5 35 0 64 4 64 9 0 16 -76 23 -117 12 -36 -11 -39 -10 -69 23
-21 21 -46 36 -70 41 -21 3 -47 13 -58 21 -19 13 -46 19 -46 10z"></path>
<path d="M2840 1765 c15 -18 16 -17 -37 -43 -36 -17 -49 -18 -78 -9 -19 6 -35
13 -35 17 0 3 -7 15 -15 26 -14 19 -14 19 -14 -1 0 -12 17 -33 44 -53 42 -32
44 -33 74 -18 40 21 39 21 43 -16 2 -24 9 -34 23 -36 16 -3 18 -1 8 9 -7 7
-13 20 -13 28 0 24 44 81 63 81 9 0 17 5 17 11 0 7 -12 9 -35 5 -22 -4 -35 -3
-35 4 0 5 -5 10 -11 10 -8 0 -7 -5 1 -15z"></path>
<path d="M3126 1767 c-18 -13 -18 -14 -1 -21 22 -8 44 9 29 24 -7 7 -16 6 -28
-3z"></path>
<path d="M4330 1773 c0 -15 48 -34 56 -22 8 13 5 16 -29 24 -15 4 -27 3 -27
-2z"></path>
<path d="M5320 1770 c0 -5 5 -10 10 -10 6 0 10 5 10 10 0 6 -4 10 -10 10 -5 0
-10 -4 -10 -10z"></path>
<path d="M2935 1749 c-4 -6 -5 -13 -2 -16 7 -7 27 6 27 18 0 12 -17 12 -25 -2z"></path>
<path d="M3045 1736 c-19 -14 -17 -15 23 -14 23 0 42 4 42 9 0 5 -4 9 -9 9 -5
0 -15 2 -23 5 -7 3 -22 -1 -33 -9z"></path>
<path d="M1832 1719 c2 -7 10 -15 17 -17 8 -3 12 1 9 9 -2 7 -10 15 -17 17 -8
3 -12 -1 -9 -9z"></path>
<path d="M4387 1713 c-4 -3 -7 -25 -6 -47 0 -37 1 -39 10 -16 5 14 17 31 27
38 15 11 15 14 2 22 -18 12 -24 12 -33 3z"></path>
<path d="M4510 1710 c0 -5 5 -10 10 -10 6 0 10 5 10 10 0 6 -4 10 -10 10 -5 0
-10 -4 -10 -10z"></path>
<path d="M2930 1690 c0 -5 5 -10 10 -10 6 0 10 5 10 10 0 6 -4 10 -10 10 -5 0
-10 -4 -10 -10z"></path>
<path d="M6030 1680 c0 -5 7 -10 15 -10 8 0 15 5 15 10 0 6 -7 10 -15 10 -8 0
-15 -4 -15 -10z"></path>
<path d="M2390 1670 c0 -5 5 -10 10 -10 6 0 10 5 10 10 0 6 -4 10 -10 10 -5 0
-10 -4 -10 -10z"></path>
<path d="M2621 1578 c-71 -71 -101 -110 -127 -163 -39 -80 -44 -115 -15 -115
26 0 30 -17 15 -59 -16 -44 -17 -71 -4 -71 5 0 14 19 20 43 15 57 30 86 49 92
9 3 61 50 116 106 74 74 92 97 70 88 -16 -7 -51 -33 -77 -58 -26 -25 -66 -65
-90 -88 -47 -46 -83 -55 -93 -24 -5 18 1 34 52 125 7 12 43 53 80 91 50 51 74
69 90 67 18 -3 22 1 21 27 -1 17 -4 31 -7 31 -4 0 -48 -42 -100 -92z"></path>
<path d="M3075 1650 c-3 -5 -1 -10 4 -10 6 0 11 5 11 10 0 6 -2 10 -4 10 -3 0
-8 -4 -11 -10z"></path>
<path d="M6125 1650 c3 -5 13 -10 21 -10 8 0 14 5 14 10 0 6 -9 10 -21 10 -11
0 -17 -4 -14 -10z"></path>
<path d="M4400 1639 c0 -9 27 -19 51 -19 33 0 21 18 -16 22 -19 2 -35 1 -35
-3z"></path>
<path d="M5253 1643 c9 -2 23 -2 30 0 6 3 -1 5 -18 5 -16 0 -22 -2 -12 -5z"></path>
<path d="M5620 1640 c0 -5 5 -10 11 -10 5 0 7 5 4 10 -3 6 -8 10 -11 10 -2 0
-4 -4 -4 -10z"></path>
<path d="M1400 1623 c0 -25 15 -38 25 -22 4 6 0 18 -9 27 -15 15 -16 15 -16
-5z"></path>
<path d="M1150 1601 c0 -15 36 -32 54 -25 22 9 20 24 -3 24 -11 0 -26 3 -35 6
-9 3 -16 1 -16 -5z"></path>
<path d="M1258 1603 c7 -3 16 -2 19 1 4 3 -2 6 -13 5 -11 0 -14 -3 -6 -6z"></path>
<path d="M1330 1600 c0 -5 7 -10 15 -10 8 0 15 5 15 10 0 6 -7 10 -15 10 -8 0
-15 -4 -15 -10z"></path>
<path d="M1490 1606 c0 -4 10 -11 23 -17 12 -5 45 -23 72 -38 45 -26 59 -29
148 -30 53 -1 105 3 115 9 9 5 31 15 47 21 17 6 24 13 17 16 -7 3 -31 -2 -53
-11 -54 -22 -201 -22 -219 -1 -8 10 -21 13 -33 9 -14 -4 -25 0 -36 14 -15 19
-81 41 -81 28z"></path>
<path d="M2475 1540 c-16 -16 -23 -30 -16 -30 17 0 71 39 71 51 0 18 -27 8
-55 -21z"></path>
<path d="M1485 1540 c3 -5 8 -10 11 -10 2 0 4 5 4 10 0 6 -5 10 -11 10 -5 0
-7 -4 -4 -10z"></path>
<path d="M5927 1525 c8 -21 60 -48 68 -35 3 6 -5 14 -18 19 -14 6 -28 15 -32
20 -10 17 -25 13 -18 -4z"></path>
<path d="M1055 1514 c-14 -11 -32 -14 -57 -10 -48 8 -50 -10 -3 -23 30 -8 41
-6 70 12 19 12 34 25 35 30 0 12 -24 7 -45 -9z"></path>
<path d="M870 1480 c0 -5 15 -10 34 -10 19 0 38 5 41 10 4 6 -10 10 -34 10
-23 0 -41 -4 -41 -10z"></path>
<path d="M1045 1449 c4 -8 16 -23 27 -35 32 -36 14 -55 -48 -51 -29 2 -57 6
-60 10 -13 13 -24 7 -24 -12 0 -22 -46 -32 -142 -31 -55 1 -76 -11 -42 -24 25
-10 64 -7 139 9 140 29 327 12 440 -40 39 -18 81 -36 95 -40 14 -4 34 -15 45
-25 11 -9 29 -20 40 -24 16 -6 15 -2 -8 21 -15 16 -27 35 -27 42 0 7 -8 11
-17 9 -21 -3 -81 19 -104 38 -19 17 -168 66 -179 59 -13 -8 -71 26 -81 49 -6
11 -22 30 -36 40 -16 12 -23 14 -18 5z"></path>
<path d="M3250 1430 c0 -5 9 -10 20 -10 11 0 20 5 20 10 0 6 -9 10 -20 10 -11
0 -20 -4 -20 -10z"></path>
<path d="M1410 1410 c0 -5 7 -7 15 -4 8 4 15 8 15 10 0 2 -7 4 -15 4 -8 0 -15
-4 -15 -10z"></path>
<path d="M1255 1380 c19 -22 85 -28 85 -9 0 7 -9 9 -22 6 -13 -3 -32 1 -42 9
-29 21 -42 17 -21 -6z"></path>
<path d="M3236 1311 c-4 -7 -5 -15 -2 -18 9 -9 19 4 14 18 -4 11 -6 11 -12 0z"></path>
<path d="M680 1290 c-8 -4 -30 -12 -47 -17 -26 -6 -31 -11 -23 -23 7 -12 12
-12 22 -2 6 6 22 12 33 12 12 0 30 9 40 20 14 15 15 20 4 19 -8 0 -21 -4 -29
-9z"></path>
<path d="M702 1206 c14 -13 43 -27 65 -31 21 -4 41 -11 44 -17 4 -6 28 -13 55
-16 45 -5 126 -43 167 -80 9 -8 20 -12 25 -8 17 18 -130 106 -179 106 -13 0
-44 9 -68 20 -24 11 -51 20 -60 20 -10 0 -26 7 -37 15 -31 23 -41 16 -12 -9z"></path>
<path d="M1660 1210 c0 -5 18 -10 40 -10 22 0 40 5 40 10 0 6 -18 10 -40 10
-22 0 -40 -4 -40 -10z"></path>
<path d="M1600 1190 c0 -5 5 -10 10 -10 6 0 10 5 10 10 0 6 -4 10 -10 10 -5 0
-10 -4 -10 -10z"></path>
<path d="M1428 1163 c-36 -9 -17 -21 32 -20 28 1 49 6 47 12 -4 11 -52 16 -79
8z"></path>
<path d="M3195 1149 c-22 -10 -48 -17 -57 -15 -10 2 -18 0 -18 -5 0 -22 36
-26 70 -9 19 11 45 24 58 29 12 6 22 13 22 16 0 10 -36 3 -75 -16z"></path>
<path d="M2470 1135 c0 -8 5 -15 10 -15 6 0 10 7 10 15 0 8 -4 15 -10 15 -5 0
-10 -7 -10 -15z"></path>
<path d="M2536 1142 c-2 -4 -1 -14 3 -21 6 -9 10 -7 14 8 5 20 -7 29 -17 13z"></path>
<path d="M1348 1133 c-10 -2 -18 -9 -18 -15 0 -5 7 -7 16 -4 9 3 22 6 30 6 8
0 14 5 14 10 0 10 -12 11 -42 3z"></path>
<path d="M1729 1121 c-19 -16 -20 -20 -8 -21 17 0 45 27 37 35 -3 3 -16 -3
-29 -14z"></path>
<path d="M3065 1110 c-3 -5 -1 -10 4 -10 6 0 11 5 11 10 0 6 -2 10 -4 10 -3 0
-8 -4 -11 -10z"></path>
<path d="M3253 1112 c-18 -2 -33 -7 -33 -13 0 -12 67 -12 75 0 8 13 -5 17 -42
13z"></path>
<path d="M953 1043 c-13 -2 -23 -9 -23 -15 0 -6 10 -8 23 -4 12 3 30 6 40 6 9
0 17 5 17 10 0 10 -16 11 -57 3z"></path>
<path d="M1505 1010 c4 -6 11 -8 16 -5 14 9 11 15 -7 15 -8 0 -12 -5 -9 -10z"></path>
<path d="M1403 997 c-50 -19 -52 -30 -4 -24 46 6 95 38 56 36 -11 0 -34 -6
-52 -12z"></path>
</g>
</svg>